<?xml version="1.0" standalone="no"?>
<!DOCTYPE svg PUBLIC "-//W3C//DTD SVG 20010904//EN" "http://www.w3.org/TR/2001/REC-SVG-20010904/DTD/svg10.dtd">
<svg version="1.0" xmlns="http://www.w3.org/2000/svg" width="512.000000pt" height="512.000000pt"
        viewBox="0 0 512.000000 512.000000" preserveAspectRatio="xMidYMid meet">
        <metadata>
                Created by potrace 1.16, written by Peter Selinger 2001-2019
        </metadata>
        <g transform="translate(0.000000,512.000000) scale(0.100000,-0.100000)" fill="current" stroke="none">
                <path d="M766 5094 l-26 -27 0 -403 0 -404 -244 0 -243 0 -27 -26 -26 -27 2
-1971 3 -1971 27 -57 c34 -73 103 -142 176 -176 l57 -27 2095 0 2095 0 57 27
c73 34 142 103 176 176 l27 57 3 746 2 746 -25 25 c-44 44 -106 44 -150 1
l-25 -26 0 -683 c0 -443 -4 -700 -11 -732 -14 -68 -63 -117 -131 -131 -33 -8
-622 -11 -1858 -11 -996 0 -1810 2 -1810 4 0 2 7 23 15 46 13 37 15 325 15
2356 l0 2314 1890 0 1890 0 0 -1179 0 -1178 26 -27 c38 -37 110 -37 148 0 l26
27 0 1252 0 1252 -26 27 -27 26 -2037 0 -2037 0 -27 -26z m-26 -2869 c0 -1247
-3 -1850 -11 -1883 -11 -52 -54 -107 -97 -123 -30 -12 -94 -12 -124 0 -43 16
-86 71 -97 123 -8 33 -11 636 -11 1883 l0 1835 170 0 170 0 0 -1835z" />
                <path d="M1219 4481 l-29 -29 0 -385 0 -384 26 -27 c37 -37 110 -37 146 -1 34
34 38 60 38 248 l0 160 126 -184 c70 -101 138 -196 152 -211 32 -35 78 -44
125 -25 66 28 67 33 67 442 l0 367 -29 29 c-23 23 -38 29 -71 29 -95 0 -104
-20 -110 -253 l-5 -189 -139 202 c-77 111 -150 210 -164 221 -38 30 -97 26
-133 -10z" />
                <path d="M2107 4499 c-45 -26 -47 -47 -47 -429 0 -384 2 -404 49 -430 12 -6
97 -10 206 -10 183 0 186 0 210 24 45 45 45 107 0 152 -23 23 -31 24 -140 24
l-115 0 0 70 0 70 105 0 c99 0 108 2 130 24 13 13 27 36 31 50 9 36 -3 73 -31
102 -22 22 -31 24 -130 24 l-105 0 0 70 0 70 115 0 c109 0 117 1 140 24 28 29
40 66 31 102 -4 14 -18 37 -31 50 -24 24 -26 24 -212 24 -109 0 -195 -5 -206
-11z" />
                <path d="M2759 4481 c-22 -23 -29 -38 -29 -68 1 -21 32 -193 69 -382 67 -338
69 -345 100 -373 26 -23 41 -28 82 -28 70 0 97 29 131 140 72 233 86 274 91
260 3 -8 28 -89 56 -180 59 -195 77 -220 160 -220 57 0 94 24 110 73 24 75
142 711 136 734 -11 45 -49 73 -99 73 -80 0 -93 -20 -131 -208 -18 -90 -34
-165 -37 -167 -2 -3 -26 68 -53 158 -58 192 -76 217 -150 217 -69 0 -83 -20
-139 -205 -27 -88 -52 -163 -55 -167 -4 -5 -20 58 -35 140 -42 215 -51 232
-136 232 -33 0 -48 -6 -71 -29z" />
                <path d="M4026 4490 c-103 -41 -160 -125 -161 -235 0 -59 4 -77 28 -118 35
-60 73 -84 216 -141 63 -25 123 -53 133 -63 43 -39 -9 -96 -84 -95 -58 1 -93
15 -146 59 -72 59 -157 44 -182 -32 -24 -73 30 -144 156 -202 83 -38 223 -45
306 -14 110 42 177 136 178 249 0 76 -19 124 -68 175 -43 45 -80 65 -222 123
-57 23 -106 47 -108 53 -2 7 4 21 14 32 28 31 105 26 171 -11 71 -40 124 -41
164 -1 22 23 29 39 29 69 0 55 -34 93 -118 134 -58 28 -79 32 -162 35 -76 3
-105 -1 -144 -17z" />
                <path d="M1263 3223 c-12 -2 -33 -16 -47 -30 l-26 -26 0 -1007 0 -1007 26 -27
27 -26 887 0 887 0 27 26 26 27 0 1007 0 1007 -25 25 c-14 14 -39 28 -56 32
-34 7 -1691 6 -1726 -1z m1607 -480 l0 -278 -153 153 c-166 166 -192 181 -253
149 -16 -9 -135 -122 -264 -251 l-234 -236 -117 115 c-115 115 -116 115 -164
115 l-48 0 -124 -122 -123 -122 0 377 0 377 740 0 740 0 0 -277z m-178 -400
l178 -178 0 -395 0 -395 -377 377 -378 378 195 195 c107 107 197 195 200 195
3 0 85 -80 182 -177z m-532 -558 l475 -475 -623 0 -622 0 0 327 0 328 147 147
c81 82 148 148 148 148 0 0 214 -214 475 -475z" />
                <path d="M3443 3223 c-12 -2 -33 -16 -47 -30 -37 -37 -37 -109 0 -147 l27 -26
497 0 497 0 27 26 c21 21 26 36 26 74 0 55 -30 94 -81 104 -34 7 -911 6 -946
-1z" />
                <path d="M3443 2743 c-12 -2 -33 -16 -47 -30 -37 -37 -37 -109 0 -147 l27 -26
497 0 497 0 27 26 c21 21 26 36 26 74 0 55 -30 94 -81 104 -34 7 -911 6 -946
-1z" />
                <path d="M3443 2263 c-12 -2 -33 -16 -47 -30 -37 -37 -37 -109 0 -147 l27 -26
497 0 497 0 27 26 c21 21 26 36 26 74 0 55 -30 94 -81 104 -34 7 -911 6 -946
-1z" />
                <path d="M4793 2263 c-12 -2 -33 -16 -47 -30 -21 -20 -26 -36 -26 -73 0 -66
34 -100 100 -100 38 0 53 5 74 26 21 21 26 36 26 74 0 38 -5 53 -26 74 -15 14
-32 26 -40 26 -7 0 -18 2 -26 4 -7 2 -23 1 -35 -1z" />
                <path d="M3443 1783 c-12 -2 -33 -16 -47 -30 -37 -37 -37 -109 0 -147 l27 -26
497 0 497 0 27 26 c21 21 26 36 26 74 0 55 -30 94 -81 104 -34 7 -911 6 -946
-1z" />
                <path d="M3443 1303 c-12 -2 -33 -16 -47 -30 -37 -37 -37 -109 0 -147 l27 -26
497 0 497 0 27 26 c21 21 26 36 26 74 0 55 -30 94 -81 104 -34 7 -911 6 -946
-1z" />
                <path d="M1216 714 c-37 -38 -37 -110 0 -148 l27 -26 1587 0 1587 0 27 26 c37
38 37 110 0 148 l-27 26 -1587 0 -1587 0 -27 -26z" />
        </g>
</svg>