<?xml version="1.0" standalone="no"?>
<!DOCTYPE svg PUBLIC "-//W3C//DTD SVG 20010904//EN" "http://www.w3.org/TR/2001/REC-SVG-20010904/DTD/svg10.dtd">
<svg version="1.0" xmlns="http://www.w3.org/2000/svg" width="512.000000pt" height="512.000000pt"
    viewBox="0 0 512.000000 512.000000" preserveAspectRatio="xMidYMid meet">
    <metadata>
        Created by potrace 1.16, written by Peter Selinger 2001-2019
    </metadata>
    <g transform="translate(0.000000,512.000000) scale(0.100000,-0.100000)" fill="current" stroke="none">
        <path d="M2405 4693 c-524 -43 -990 -257 -1356 -622 -179 -180 -303 -355 -414
-583 -391 -806 -233 -1775 394 -2421 291 -301 690 -517 1109 -603 170 -35 280
-37 347 -6 63 29 119 83 153 147 l27 50 5 492 5 493 28 27 27 28 768 5 c764 5
767 5 826 28 85 32 138 65 194 122 86 87 115 161 151 380 110 667 -111 1352
-594 1836 -182 183 -346 300 -578 415 -334 163 -737 242 -1092 212z m425 -239
c211 -31 370 -80 565 -174 575 -278 968 -818 1061 -1460 31 -220 3 -637 -51
-739 -21 -41 -85 -97 -145 -128 l-55 -28 -765 -5 -765 -5 -51 -27 c-66 -35
-128 -105 -154 -174 -19 -52 -20 -77 -20 -520 0 -490 -2 -511 -45 -528 -63
-24 -339 33 -536 110 -573 224 -1007 711 -1160 1299 -79 306 -80 650 -4 955
114 458 407 867 810 1133 101 66 292 162 403 201 285 101 614 133 912 90z" />
        <path d="M1807 3825 c-89 -34 -172 -122 -197 -209 -18 -66 -9 -181 18 -238 30
-60 90 -120 150 -150 39 -19 63 -23 142 -23 111 0 162 19 229 86 67 67 86 118
86 229 0 79 -4 103 -23 142 -30 60 -90 120 -150 150 -59 29 -195 36 -255 13z
m162 -219 c67 -35 65 -143 -4 -174 -51 -23 -107 -7 -131 39 -47 91 44 182 135
135z" />
        <path d="M3087 3825 c-89 -34 -172 -122 -197 -209 -18 -66 -9 -181 18 -238 30
-60 90 -120 150 -150 39 -19 63 -23 142 -23 111 0 162 19 229 86 67 67 86 118
86 229 0 79 -4 103 -23 142 -30 60 -90 120 -150 150 -59 29 -195 36 -255 13z
m162 -219 c67 -35 65 -143 -4 -174 -91 -41 -179 51 -131 137 26 47 84 63 135
37z" />
        <path d="M1300 2981 c-94 -31 -168 -95 -209 -181 -34 -73 -36 -191 -4 -262 30
-66 95 -133 162 -165 78 -39 190 -39 271 -2 194 91 251 337 117 501 -61 75
-134 110 -235 114 -42 2 -88 0 -102 -5z m136 -230 c87 -53 55 -181 -46 -181
-102 0 -141 136 -52 184 36 20 61 20 98 -3z" />
        <path d="M3622 2972 c-72 -26 -141 -87 -177 -157 -27 -53 -30 -68 -30 -149 0
-79 4 -98 28 -143 35 -68 89 -120 157 -152 81 -37 193 -37 271 2 67 32 132 99
162 165 32 71 30 189 -4 262 -31 67 -93 130 -157 161 -66 31 -179 36 -250 11z
m158 -217 c91 -47 53 -185 -50 -185 -101 0 -133 128 -46 181 38 23 58 24 96 4z" />
    </g>
</svg>